<mxfile host="Electron" modified="2024-08-02T16:36:44.466Z" agent="Mozilla/5.0 (Windows NT 10.0; Win64; x64) AppleWebKit/537.36 (KHTML, like Gecko) draw.io/22.0.2 Chrome/114.0.5735.289 Electron/25.8.4 Safari/537.36" etag="oICKA63zPsDrPhWKcSVp" version="22.0.2" type="device">
  <diagram name="第 1 页" id="XWjhuGjZIDZvUrzgFzQ1">
    <mxGraphModel dx="1948" dy="962" grid="1" gridSize="10" guides="1" tooltips="1" connect="1" arrows="1" fold="1" page="1" pageScale="1" pageWidth="827" pageHeight="1169" math="0" shadow="0">
      <root>
        <mxCell id="0" />
        <mxCell id="1" parent="0" />
        <mxCell id="84Wg8D0-4yVSgBaiV-lj-18" value="&lt;b&gt;&lt;font face=&quot;新宋体&quot;&gt;宠物领养&lt;/font&gt;&lt;/b&gt;" style="whiteSpace=wrap;html=1;align=center;fillColor=#647687;fontColor=#ffffff;strokeColor=#314354;" parent="1" vertex="1">
          <mxGeometry x="250.04999999999995" y="250" width="160" height="30" as="geometry" />
        </mxCell>
        <mxCell id="84Wg8D0-4yVSgBaiV-lj-19" value="&lt;div style=&quot;border-color: var(--border-color);&quot;&gt;&lt;u style=&quot;border-color: var(--border-color);&quot;&gt;&lt;font face=&quot;新宋体&quot;&gt;宠物领养ID&lt;/font&gt;&lt;/u&gt;&lt;/div&gt;&lt;div style=&quot;border-color: var(--border-color);&quot;&gt;&lt;font face=&quot;新宋体&quot;&gt;用户ID&lt;/font&gt;&lt;/div&gt;&lt;div style=&quot;border-color: var(--border-color);&quot;&gt;&lt;font face=&quot;新宋体&quot;&gt;宠物分类ID&lt;/font&gt;&lt;/div&gt;&lt;div style=&quot;border-color: var(--border-color);&quot;&gt;&lt;font face=&quot;新宋体&quot;&gt;宠物子类ID&lt;/font&gt;&lt;/div&gt;&lt;div style=&quot;border-color: var(--border-color);&quot;&gt;&lt;font face=&quot;新宋体&quot;&gt;宠物名称&lt;/font&gt;&lt;/div&gt;&lt;div style=&quot;border-color: var(--border-color);&quot;&gt;&lt;font face=&quot;新宋体&quot;&gt;图片链接&lt;/font&gt;&lt;/div&gt;&lt;div style=&quot;border-color: var(--border-color);&quot;&gt;&lt;font face=&quot;新宋体&quot;&gt;宠物年龄&lt;/font&gt;&lt;/div&gt;&lt;div style=&quot;border-color: var(--border-color);&quot;&gt;&lt;font face=&quot;新宋体&quot;&gt;地址&lt;/font&gt;&lt;/div&gt;&lt;div style=&quot;border-color: var(--border-color);&quot;&gt;&lt;font face=&quot;新宋体&quot;&gt;转让原因&lt;/font&gt;&lt;/div&gt;&lt;div style=&quot;border-color: var(--border-color);&quot;&gt;&lt;font face=&quot;新宋体&quot;&gt;健康情况&lt;/font&gt;&lt;/div&gt;&lt;div style=&quot;border-color: var(--border-color);&quot;&gt;&lt;font face=&quot;新宋体&quot;&gt;最近一次健康检查日期&lt;/font&gt;&lt;/div&gt;&lt;div style=&quot;border-color: var(--border-color);&quot;&gt;&lt;font face=&quot;新宋体&quot;&gt;疫苗接种情况&lt;/font&gt;&lt;/div&gt;&lt;div style=&quot;border-color: var(--border-color);&quot;&gt;&lt;font face=&quot;新宋体&quot;&gt;特殊护理需求&lt;/font&gt;&lt;/div&gt;&lt;div style=&quot;border-color: var(--border-color);&quot;&gt;&lt;font face=&quot;新宋体&quot;&gt;特殊饮食需求&lt;/font&gt;&lt;/div&gt;&lt;div style=&quot;border-color: var(--border-color);&quot;&gt;&lt;font face=&quot;新宋体&quot;&gt;性格行为特征&lt;/font&gt;&lt;/div&gt;&lt;div style=&quot;border-color: var(--border-color);&quot;&gt;&lt;font face=&quot;新宋体&quot;&gt;是否已绝育&lt;/font&gt;&lt;/div&gt;&lt;div style=&quot;border-color: var(--border-color);&quot;&gt;&lt;font face=&quot;新宋体&quot;&gt;备注&lt;/font&gt;&lt;/div&gt;&lt;div style=&quot;border-color: var(--border-color);&quot;&gt;&lt;font face=&quot;新宋体&quot;&gt;领养状态&lt;/font&gt;&lt;/div&gt;&lt;div style=&quot;border-color: var(--border-color);&quot;&gt;&lt;font face=&quot;新宋体&quot;&gt;性别&lt;/font&gt;&lt;/div&gt;&lt;div style=&quot;border-color: var(--border-color);&quot;&gt;&lt;font face=&quot;新宋体&quot;&gt;附件链接&lt;/font&gt;&lt;/div&gt;" style="whiteSpace=wrap;html=1;align=center;" parent="1" vertex="1">
          <mxGeometry x="250.04999999999995" y="280" width="160" height="290" as="geometry" />
        </mxCell>
        <mxCell id="QV8q_15X7JUbRMDC0rht-187" value="&lt;font face=&quot;新宋体&quot;&gt;属于&lt;/font&gt;" style="shape=rhombus;perimeter=rhombusPerimeter;whiteSpace=wrap;html=1;align=center;" parent="1" vertex="1">
          <mxGeometry x="60.01999999999998" y="395" width="120" height="60" as="geometry" />
        </mxCell>
        <mxCell id="SZYX7Au4rPHvlYyn9Vcu-39" style="edgeStyle=orthogonalEdgeStyle;rounded=0;orthogonalLoop=1;jettySize=auto;html=1;exitX=0.5;exitY=0;exitDx=0;exitDy=0;entryX=0.5;entryY=1;entryDx=0;entryDy=0;" parent="1" source="QV8q_15X7JUbRMDC0rht-188" edge="1">
          <mxGeometry relative="1" as="geometry">
            <mxPoint x="540.0299999999997" y="250" as="targetPoint" />
          </mxGeometry>
        </mxCell>
        <mxCell id="QV8q_15X7JUbRMDC0rht-188" value="&lt;font face=&quot;新宋体&quot;&gt;属于&lt;/font&gt;" style="shape=rhombus;perimeter=rhombusPerimeter;whiteSpace=wrap;html=1;align=center;" parent="1" vertex="1">
          <mxGeometry x="480.04999999999995" y="395" width="120" height="60" as="geometry" />
        </mxCell>
        <mxCell id="QV8q_15X7JUbRMDC0rht-191" value="" style="endArrow=classic;html=1;rounded=0;entryX=0.5;entryY=1;entryDx=0;entryDy=0;exitX=0.5;exitY=0;exitDx=0;exitDy=0;" parent="1" source="QV8q_15X7JUbRMDC0rht-187" edge="1">
          <mxGeometry width="50" height="50" relative="1" as="geometry">
            <mxPoint x="-120" y="114.40999999999985" as="sourcePoint" />
            <mxPoint x="120" y="200" as="targetPoint" />
          </mxGeometry>
        </mxCell>
        <mxCell id="0FVkZkgszlfXwm3OJGhc-8" value="" style="shape=link;html=1;rounded=0;entryX=0;entryY=0.5;entryDx=0;entryDy=0;exitX=1;exitY=0.5;exitDx=0;exitDy=0;" parent="1" edge="1">
          <mxGeometry relative="1" as="geometry">
            <mxPoint x="411" y="424.5" as="sourcePoint" />
            <mxPoint x="481" y="424.5" as="targetPoint" />
          </mxGeometry>
        </mxCell>
        <mxCell id="0FVkZkgszlfXwm3OJGhc-9" value="" style="shape=link;html=1;rounded=0;entryX=0;entryY=0.5;entryDx=0;entryDy=0;exitX=1;exitY=0.5;exitDx=0;exitDy=0;" parent="1" edge="1">
          <mxGeometry relative="1" as="geometry">
            <mxPoint x="180.01999999999998" y="424.5" as="sourcePoint" />
            <mxPoint x="250.01999999999998" y="424.5" as="targetPoint" />
          </mxGeometry>
        </mxCell>
        <mxCell id="pyBe0eAKOOkcJTiZCA7k-1" value="&lt;b&gt;&lt;font face=&quot;新宋体&quot;&gt;宠物分类&lt;/font&gt;&lt;/b&gt;" style="whiteSpace=wrap;html=1;align=center;fillColor=#647687;fontColor=#ffffff;strokeColor=#314354;" parent="1" vertex="1">
          <mxGeometry x="40.02999999999997" y="100" width="160" height="30" as="geometry" />
        </mxCell>
        <mxCell id="pyBe0eAKOOkcJTiZCA7k-2" value="&lt;div style=&quot;border-color: var(--border-color);&quot;&gt;&lt;u style=&quot;border-color: var(--border-color);&quot;&gt;&lt;font face=&quot;新宋体&quot;&gt;宠物分类ID&lt;/font&gt;&lt;/u&gt;&lt;/div&gt;&lt;div style=&quot;border-color: var(--border-color);&quot;&gt;&lt;font face=&quot;新宋体&quot;&gt;宠物分类名称 (十种语言)&lt;/font&gt;&lt;/div&gt;&lt;div style=&quot;border-color: var(--border-color);&quot;&gt;&lt;font face=&quot;新宋体&quot;&gt;描述 (十种语言)&lt;/font&gt;&lt;/div&gt;&lt;div style=&quot;border-color: var(--border-color);&quot;&gt;&lt;font face=&quot;新宋体&quot;&gt;图片链接&lt;/font&gt;&lt;/div&gt;" style="whiteSpace=wrap;html=1;align=center;" parent="1" vertex="1">
          <mxGeometry x="40.02999999999997" y="130" width="160" height="70" as="geometry" />
        </mxCell>
        <mxCell id="pyBe0eAKOOkcJTiZCA7k-3" value="&lt;b&gt;&lt;font face=&quot;新宋体&quot;&gt;宠物子类&lt;/font&gt;&lt;/b&gt;" style="whiteSpace=wrap;html=1;align=center;fillColor=#647687;fontColor=#ffffff;strokeColor=#314354;" parent="1" vertex="1">
          <mxGeometry x="460.04999999999995" y="40" width="160" height="30" as="geometry" />
        </mxCell>
        <mxCell id="pyBe0eAKOOkcJTiZCA7k-4" value="&lt;div style=&quot;border-color: var(--border-color);&quot;&gt;&lt;u style=&quot;border-color: var(--border-color);&quot;&gt;&lt;font face=&quot;新宋体&quot;&gt;宠物子类ID&lt;/font&gt;&lt;/u&gt;&lt;/div&gt;&lt;div style=&quot;border-color: var(--border-color);&quot;&gt;&lt;span style=&quot;border-color: var(--border-color);&quot;&gt;&lt;font style=&quot;&quot; face=&quot;新宋体&quot;&gt;宠物分类ID&lt;/font&gt;&lt;/span&gt;&lt;/div&gt;&lt;div style=&quot;border-color: var(--border-color);&quot;&gt;&lt;font face=&quot;新宋体&quot;&gt;宠物子类名称 (十种语言)&lt;/font&gt;&lt;/div&gt;&lt;div style=&quot;border-color: var(--border-color);&quot;&gt;&lt;font face=&quot;新宋体&quot;&gt;描述 (十种语言)&lt;/font&gt;&lt;/div&gt;&lt;div style=&quot;border-color: var(--border-color);&quot;&gt;&lt;font face=&quot;新宋体&quot;&gt;图片链接&lt;/font&gt;&lt;/div&gt;&lt;div style=&quot;border-color: var(--border-color);&quot;&gt;&lt;font face=&quot;新宋体&quot;&gt;起源地 (十种语言)&lt;/font&gt;&lt;/div&gt;&lt;div style=&quot;border-color: var(--border-color);&quot;&gt;&lt;font face=&quot;新宋体&quot;&gt;体型 (十种语言)&lt;/font&gt;&lt;/div&gt;&lt;div style=&quot;border-color: var(--border-color);&quot;&gt;&lt;font face=&quot;新宋体&quot;&gt;毛色 (十种语言)&lt;/font&gt;&lt;/div&gt;&lt;div style=&quot;border-color: var(--border-color);&quot;&gt;&lt;font face=&quot;新宋体&quot;&gt;寿命 (十种语言)&lt;/font&gt;&lt;/div&gt;&lt;div style=&quot;border-color: var(--border-color);&quot;&gt;&lt;font face=&quot;新宋体&quot;&gt;性情 (十种语言)&lt;/font&gt;&lt;/div&gt;&lt;div style=&quot;border-color: var(--border-color);&quot;&gt;&lt;font face=&quot;新宋体&quot;&gt;饮食习惯 (十种语言)&lt;/font&gt;&lt;/div&gt;&lt;div style=&quot;border-color: var(--border-color);&quot;&gt;&lt;font face=&quot;新宋体&quot;&gt;经纬度参数&lt;/font&gt;&lt;/div&gt;" style="whiteSpace=wrap;html=1;align=center;" parent="1" vertex="1">
          <mxGeometry x="460.06" y="70" width="160" height="190" as="geometry" />
        </mxCell>
        <mxCell id="pyBe0eAKOOkcJTiZCA7k-5" value="&lt;b&gt;&lt;font face=&quot;新宋体&quot;&gt;宠物护理指导&lt;/font&gt;&lt;/b&gt;" style="whiteSpace=wrap;html=1;align=center;fillColor=#647687;fontColor=#ffffff;strokeColor=#314354;" parent="1" vertex="1">
          <mxGeometry x="880.06" y="100" width="160" height="30" as="geometry" />
        </mxCell>
        <mxCell id="pyBe0eAKOOkcJTiZCA7k-6" value="&lt;div style=&quot;border-color: var(--border-color);&quot;&gt;&lt;u style=&quot;border-color: var(--border-color);&quot;&gt;&lt;font face=&quot;新宋体&quot;&gt;宠物护理指导ID&lt;/font&gt;&lt;/u&gt;&lt;/div&gt;&lt;div style=&quot;border-color: var(--border-color);&quot;&gt;&lt;span style=&quot;border-color: var(--border-color);&quot;&gt;&lt;font style=&quot;&quot; face=&quot;新宋体&quot;&gt;宠物子类ID&lt;/font&gt;&lt;/span&gt;&lt;/div&gt;&lt;div style=&quot;border-color: var(--border-color);&quot;&gt;&lt;font face=&quot;新宋体&quot;&gt;标题 (十种语言)&lt;/font&gt;&lt;/div&gt;&lt;div style=&quot;border-color: var(--border-color);&quot;&gt;&lt;font face=&quot;新宋体&quot;&gt;内容 (十种语言)&lt;/font&gt;&lt;/div&gt;" style="whiteSpace=wrap;html=1;align=center;" parent="1" vertex="1">
          <mxGeometry x="880.06" y="130" width="160" height="70" as="geometry" />
        </mxCell>
        <mxCell id="pyBe0eAKOOkcJTiZCA7k-7" style="edgeStyle=orthogonalEdgeStyle;rounded=0;orthogonalLoop=1;jettySize=auto;html=1;exitX=0;exitY=0.5;exitDx=0;exitDy=0;entryX=1;entryY=0.5;entryDx=0;entryDy=0;" parent="1" source="pyBe0eAKOOkcJTiZCA7k-8" target="pyBe0eAKOOkcJTiZCA7k-2" edge="1">
          <mxGeometry relative="1" as="geometry" />
        </mxCell>
        <mxCell id="pyBe0eAKOOkcJTiZCA7k-8" value="&lt;font face=&quot;新宋体&quot;&gt;包含&lt;/font&gt;" style="shape=rhombus;perimeter=rhombusPerimeter;whiteSpace=wrap;html=1;align=center;" parent="1" vertex="1">
          <mxGeometry x="270.05999999999995" y="135" width="120" height="60" as="geometry" />
        </mxCell>
        <mxCell id="pyBe0eAKOOkcJTiZCA7k-9" style="edgeStyle=orthogonalEdgeStyle;rounded=0;orthogonalLoop=1;jettySize=auto;html=1;exitX=0;exitY=0.5;exitDx=0;exitDy=0;entryX=1;entryY=0.5;entryDx=0;entryDy=0;" parent="1" source="pyBe0eAKOOkcJTiZCA7k-10" target="pyBe0eAKOOkcJTiZCA7k-4" edge="1">
          <mxGeometry relative="1" as="geometry" />
        </mxCell>
        <mxCell id="pyBe0eAKOOkcJTiZCA7k-10" value="&lt;font face=&quot;新宋体&quot;&gt;拥有&lt;/font&gt;" style="shape=rhombus;perimeter=rhombusPerimeter;whiteSpace=wrap;html=1;align=center;" parent="1" vertex="1">
          <mxGeometry x="690.06" y="135" width="120" height="60" as="geometry" />
        </mxCell>
        <mxCell id="pyBe0eAKOOkcJTiZCA7k-12" value="" style="shape=link;html=1;rounded=0;exitX=1;exitY=0.5;exitDx=0;exitDy=0;entryX=0;entryY=0.5;entryDx=0;entryDy=0;" parent="1" source="pyBe0eAKOOkcJTiZCA7k-8" target="pyBe0eAKOOkcJTiZCA7k-4" edge="1">
          <mxGeometry relative="1" as="geometry">
            <mxPoint x="320.03" y="230" as="sourcePoint" />
            <mxPoint x="480.03" y="230" as="targetPoint" />
          </mxGeometry>
        </mxCell>
        <mxCell id="pyBe0eAKOOkcJTiZCA7k-13" value="" style="shape=link;html=1;rounded=0;exitX=1;exitY=0.5;exitDx=0;exitDy=0;entryX=0;entryY=0.5;entryDx=0;entryDy=0;" parent="1" source="pyBe0eAKOOkcJTiZCA7k-10" target="pyBe0eAKOOkcJTiZCA7k-6" edge="1">
          <mxGeometry relative="1" as="geometry">
            <mxPoint x="760.06" y="200" as="sourcePoint" />
            <mxPoint x="830.06" y="200" as="targetPoint" />
          </mxGeometry>
        </mxCell>
      </root>
    </mxGraphModel>
  </diagram>
</mxfile>
